# xmcd
#
# Track frame offsets: 
#        150
#        2827
#        17530
#        26227
#        35555
#        54372
#        65717
#        75155
#        81727
#        95920
#        109867
#        136715
#        149570
#        165662
#        178260
#        196070
#        208240
#        230822
#        243200
#        265020
#        278930
#        285750
#        300575
#        315822
#        330967
#        340192
#
# Disc length: 4572 seconds
#
# Revision: 3
# Processed by: cddbd v1.5.2PL0 Copyright (c) Steve Scherf et al.
# Submitted via: ExactAudioCopyFreeDBPlugin 1.0
#
DISCID=6911da1a
DTITLE=Glenn Miller Army Air Force band - The Secret Broadcasts
DYEAR=1944
DGENRE=Big Band
TTITLE0=I Sustain The Wings
TTITLE1=Stealin' Apples
TTITLE2=Army Air Corps Song - A Felow On A Furlough
TTITLE3=Cherokee
TTITLE4=Stormy Weather
TTITLE5=Guns In The Sky
TTITLE6=Jeanie With The Light Brown Hair
TTITLE7=Music Makers
TTITLE8=Summertime
TTITLE9=It Must Be Jelly ('Cause Jam Don't Shake Like That)
TTITLE10=Holiday For Strings
TTITLE11=The Victory Polka
TTITLE12=A String Of Pearls
TTITLE13=Moonlight Serenade
TTITLE14=Speak Low
TTITLE15=Sun Valley Jump
TTITLE16=Annie Laurie
TTITLE17=Enlisted Men's Mess
TTITLE18=Poinciana
TTITLE19=Song Of The Volga Boatmen
TTITLE20=All Through The Night
TTITLE21=9:20 Special
TTITLE22=Now I Know
TTITLE23=Jeep Jockey Jump
TTITLE24=Good Night, Wherever You Are
TTITLE25=I Sustain The Wings
EXTD=RCA Victor - BMG 75605-52500-2\n3 CD set\n1996\n\nThe Army Air Fo
EXTD=rces Training Command Band
EXTT0=opening theme
EXTT1=24 March 1944, Program #6
EXTT2=26 May 1944, Program #21\nVocalist: Johnny Desmond
EXTT3=24 March 1944, Program #5
EXTT4=24 March 1944, Program #4
EXTT5=21 April 1944, Program #11\nVocalists: Johnny Desmond and Ensemble
EXTT6=10 March 1944, Program #2
EXTT7=26 May 1944, Program #20
EXTT8=26 May 1944, Program #21
EXTT9=7 April 1944, Program #9\nVocalists: The Band
EXTT10=10 March 1944, Program #1
EXTT11=7 April 1944, Program #8\nVocalists: The Glee Club
EXTT12=21 April 1944, Program #11
EXTT13=21 April 1944, Program #11
EXTT14=7 April 1944, Program #8\nVocalist: Johnny Desmond
EXTT15=24 March 1944, Program #5
EXTT16=26 May 1944, Program #20
EXTT17=5 May 1944, Program #13
EXTT18=7 April 1944, Program #7\nVocalists: Johnny Desmond and The Crew 
EXTT18=Chiefs
EXTT19=21 April 1944, Program #10
EXTT20=5 May 1944, Program #13
EXTT21=19 May 1944, Program #17
EXTT22=5 May 1944, Program #13\nVocalist: Johnny Desmond
EXTT23=7 April 1944, Program #7
EXTT24=26 May 1944, Program #20\nVocalists: Johnny Desmond and The Crew 
EXTT24=Chiefs
EXTT25=closing theme
PLAYORDER=
